<?xml version="1.0" encoding="utf-8"?>
<!-- Generator: Adobe Illustrator 21.0.2, SVG Export Plug-In . SVG Version: 6.00 Build 0)  -->
<svg version="1.1" id="Layer_1" xmlns="http://www.w3.org/2000/svg" xmlns:xlink="http://www.w3.org/1999/xlink" x="0px" y="0px"
	 viewBox="0 0 2800 2000" style="enable-background:new 0 0 2800 2000;" xml:space="preserve">
<style type="text/css">
	.st0{fill:url(#SVGID_1_);}
	.st1{opacity:0.64;fill:#7498CF;}
	.st2{opacity:0.6;fill:#9188C1;}
	.st3{opacity:0.18;fill:#434D5B;}
	.st4{fill:#FFFFFF;}
	.st5{fill:url(#SVGID_2_);}
	.st6{fill:#F1E6EE;}
	.st7{fill:#D7BFD1;}
	.st8{fill:#DECBDA;}
	.st9{fill:#F7F2F6;}
	.st10{fill:#EFDAE8;}
	.st11{fill:#433F5B;}
	.st12{font-family:'OpenSans-Bold';}
	.st13{font-size:186.2535px;}
	.st14{fill:#5B5380;}
	.st15{fill:none;stroke:#EFDAE8;stroke-width:11;stroke-linecap:round;stroke-linejoin:round;stroke-miterlimit:10;}
	.st16{font-family:'OpenSans-Semibold';}
	.st17{font-size:68.0625px;}
</style>
<linearGradient id="SVGID_1_" gradientUnits="userSpaceOnUse" x1="2733.603" y1="-9.8369" x2="138.3425" y2="1955.358">
	<stop  offset="0" style="stop-color:#6A58A5"/>
	<stop  offset="0.158" style="stop-color:#6B5CA8"/>
	<stop  offset="0.3771" style="stop-color:#6D66AE"/>
	<stop  offset="0.6321" style="stop-color:#6F77B9"/>
	<stop  offset="0.9121" style="stop-color:#738FC9"/>
	<stop  offset="0.9956" style="stop-color:#7498CF"/>
</linearGradient>
<rect class="st0" width="2800" height="2000"/>
<path class="st1" d="M2800,862.8c-126.9-86-280.1-136.3-445-136.3c-438.5,0-794,355.5-794,794c0,180.2,60,346.3,161.1,479.5H2800
	V862.8z"/>
<path class="st2" d="M266.8,54.2C163.3,54.2,69.3,95,0,161.4v557.2C69.3,785,163.3,825.7,266.8,825.7
	c213.1,0,385.8-172.7,385.8-385.8S479.9,54.2,266.8,54.2z"/>
<rect x="379.7" y="283" class="st3" width="2116.7" height="1512"/>
<rect x="342.6" y="245" class="st4" width="2116.7" height="1512"/>
<g>
	<linearGradient id="SVGID_2_" gradientUnits="userSpaceOnUse" x1="840.3967" y1="1452.2014" x2="840.3967" y2="717.1909">
		<stop  offset="0" style="stop-color:#EFDAE8"/>
		<stop  offset="0.4096" style="stop-color:#ECD4E3"/>
		<stop  offset="0.9768" style="stop-color:#E3C4D8"/>
		<stop  offset="0.9956" style="stop-color:#E2C3D8"/>
	</linearGradient>
	<path class="st5" d="M916,732.9H342.6v844.4H916c233.2,0,422.2-189,422.2-422.2v0C1338.2,921.9,1149.2,732.9,916,732.9z"/>
	<g>
		<rect x="563.8" y="1061.4" class="st6" width="52.3" height="514.3"/>
		<rect x="442.6" y="1061.4" class="st7" width="121.1" height="514.3"/>
		<polygon class="st8" points="442.6,1061.4 528,972.2 563.8,1061.4 		"/>
		<polygon class="st9" points="616.1,1061.4 528,972.2 563.8,1061.4 		"/>
		<rect x="454.9" y="1084.1" class="st10" width="19.2" height="19.2"/>
		<rect x="489.3" y="1084.1" class="st10" width="19.2" height="19.2"/>
		<rect x="574.7" y="1078.9" class="st9" width="9.6" height="19.2"/>
		<rect x="574.7" y="1176.9" class="st9" width="9.6" height="19.2"/>
		<rect x="593.9" y="1176.9" class="st9" width="9.6" height="19.2"/>
		<rect x="603.4" y="1078.9" class="st9" width="9.6" height="19.2"/>
		<rect x="498.9" y="1239.8" class="st10" width="19.2" height="19.2"/>
		<rect x="533.3" y="1239.8" class="st10" width="19.2" height="19.2"/>
		<rect x="457.6" y="1176.9" class="st10" width="19.2" height="19.2"/>
		<rect x="492" y="1176.9" class="st10" width="19.2" height="19.2"/>
		<rect x="493.8" y="1126.3" class="st10" width="19.2" height="19.2"/>
		<rect x="528.2" y="1126.3" class="st10" width="19.2" height="19.2"/>
	</g>
	<g>
		<path class="st6" d="M611.7,1194.4v382.8H444.8v-382.8c0-11.8,9.6-21.4,21.4-21.4h124.1C602.1,1173,611.7,1182.6,611.7,1194.4z"/>
		<path class="st7" d="M538.5,1194.4v382.8H371.6v-382.8c0-11.8,9.6-21.4,21.4-21.4h124.1C528.9,1173,538.5,1182.6,538.5,1194.4z"/>
		<g>
			<rect x="393.6" y="1212.2" class="st10" width="24.8" height="24.8"/>
			<rect x="442.7" y="1212.2" class="st10" width="24.8" height="24.8"/>
			<rect x="491.7" y="1212.2" class="st10" width="24.8" height="24.8"/>
		</g>
		<rect x="393.6" y="1273.4" class="st10" width="24.8" height="24.8"/>
		<rect x="491.7" y="1273.4" class="st10" width="24.8" height="24.8"/>
		<rect x="553.9" y="1209.3" class="st9" width="18.2" height="24.8"/>
		<rect x="553.9" y="1518.3" class="st9" width="18.2" height="24.8"/>
		<rect x="553.9" y="1395.8" class="st9" width="18.2" height="24.8"/>
		<g>
			<rect x="442.7" y="1334.6" class="st10" width="24.8" height="24.8"/>
			<rect x="491.7" y="1334.6" class="st10" width="24.8" height="24.8"/>
		</g>
		<g>
			<rect x="393.6" y="1395.8" class="st10" width="24.8" height="24.8"/>
			<rect x="442.7" y="1395.8" class="st10" width="24.8" height="24.8"/>
			<rect x="491.7" y="1395.8" class="st10" width="24.8" height="24.8"/>
		</g>
		<g>
			<rect x="393.6" y="1457.1" class="st10" width="24.8" height="24.8"/>
			<rect x="491.7" y="1457.1" class="st10" width="24.8" height="24.8"/>
		</g>
		<g>
			<rect x="393.6" y="1518.3" class="st10" width="24.8" height="24.8"/>
			<rect x="442.7" y="1518.3" class="st10" width="24.8" height="24.8"/>
			<rect x="491.7" y="1518.3" class="st10" width="24.8" height="24.8"/>
		</g>
	</g>
	<g>
		<path class="st6" d="M982.8,1215.2v356.7c-10.6,1.7-21.3,3-32.2,3.9c-11.6,1-23.3,1.4-35.2,1.4h-99.6v-362.1
			c0-11.8,9.6-21.4,21.4-21.4h124.1C973.3,1193.8,982.8,1203.3,982.8,1215.2z"/>
		<path class="st7" d="M909.6,1215.2v362.1H742.7v-362.1c0-11.8,9.6-21.4,21.4-21.4h124.1C900.1,1193.8,909.6,1203.3,909.6,1215.2z"
			/>
		<g>
			<rect x="764.7" y="1232.9" class="st10" width="24.8" height="24.8"/>
			<rect x="813.8" y="1232.9" class="st10" width="24.8" height="24.8"/>
			<rect x="862.9" y="1232.9" class="st10" width="24.8" height="24.8"/>
		</g>
		<rect x="764.7" y="1294.1" class="st10" width="24.8" height="24.8"/>
		<rect x="862.9" y="1294.1" class="st10" width="24.8" height="24.8"/>
		<rect x="925" y="1230" class="st9" width="18.2" height="24.8"/>
		<rect x="925" y="1539" class="st9" width="18.2" height="24.8"/>
		<rect x="925" y="1416.5" class="st9" width="18.2" height="24.8"/>
		<g>
			<rect x="813.8" y="1355.3" class="st10" width="24.8" height="24.8"/>
			<rect x="862.9" y="1355.3" class="st10" width="24.8" height="24.8"/>
		</g>
		<g>
			<rect x="764.7" y="1416.6" class="st10" width="24.8" height="24.8"/>
			<rect x="813.8" y="1416.6" class="st10" width="24.8" height="24.8"/>
			<rect x="862.9" y="1416.6" class="st10" width="24.8" height="24.8"/>
		</g>
		<g>
			<rect x="764.7" y="1477.8" class="st10" width="24.8" height="24.8"/>
			<rect x="862.9" y="1477.8" class="st10" width="24.8" height="24.8"/>
		</g>
		<g>
			<rect x="764.7" y="1539" class="st10" width="24.8" height="24.8"/>
			<rect x="813.8" y="1539" class="st10" width="24.8" height="24.8"/>
			<rect x="862.9" y="1539" class="st10" width="24.8" height="24.8"/>
		</g>
	</g>
	<g>
		<path class="st7" d="M1129.6,1140.4v378.9c-53.1,31.2-113.7,51.2-178.4,56.5v-435.4H1129.6z"/>
		<path class="st6" d="M1209.7,1140.4v318c-24.1,23.4-51,43.8-80.1,60.9v-378.9H1209.7z"/>
		<rect x="976.5" y="1177.3" class="st10" width="28.3" height="28.3"/>
		<rect x="1071.2" y="1363.1" class="st10" width="28.3" height="28.3"/>
		<rect x="1035.4" y="1177.3" class="st10" width="28.3" height="28.3"/>
		<rect x="976.5" y="1436.6" class="st10" width="28.3" height="28.3"/>
		<rect x="1035.4" y="1436.6" class="st10" width="28.3" height="28.3"/>
		<rect x="1141.3" y="1177.3" class="st10" width="21" height="28.3"/>
		<rect x="1141.3" y="1362.5" class="st10" width="21" height="28.3"/>
		<rect x="1162.3" y="1249.6" class="st10" width="21" height="28.3"/>
		<rect x="982.4" y="1315.6" class="st10" width="28.3" height="28.3"/>
		<rect x="1026.4" y="1251.3" class="st10" width="28.3" height="28.3"/>
		<rect x="1085.3" y="1251.3" class="st10" width="28.3" height="28.3"/>
	</g>
	<g>
		<path class="st9" d="M1097.3,1017.5L1097.3,1017.5c0,10.8,8.7,19.5,19.5,19.5h60.6c10.8,0,19.5-8.7,19.5-19.5l0,0
			c0-10.8-8.7-19.5-19.5-19.5h-60.6C1106.1,998,1097.3,1006.7,1097.3,1017.5z"/>
		<path class="st9" d="M1030.4,992.3L1030.4,992.3c0,10.8,8.7,19.5,19.5,19.5h60.6c10.8,0,19.5-8.7,19.5-19.5l0,0
			c0-10.8-8.7-19.5-19.5-19.5h-60.6C1039.2,972.8,1030.4,981.5,1030.4,992.3z"/>
		<path class="st9" d="M1061.6,966L1061.6,966c0,10.8,8.7,19.5,19.5,19.5h60.6c10.8,0,19.5-8.7,19.5-19.5v0
			c0-10.8-8.7-19.5-19.5-19.5h-60.6C1070.3,946.5,1061.6,955.2,1061.6,966z"/>
	</g>
	<g>
		<path class="st9" d="M386.2,954.7L386.2,954.7c0,10.8,8.7,19.5,19.5,19.5h60.6c10.8,0,19.5-8.7,19.5-19.5l0,0
			c0-10.8-8.7-19.5-19.5-19.5h-60.6C394.9,935.2,386.2,943.9,386.2,954.7z"/>
		<path class="st9" d="M422.3,906.9L422.3,906.9c0,10.8,8.7,19.5,19.5,19.5h60.6c10.8,0,19.5-8.7,19.5-19.5l0,0
			c0-10.8-8.7-19.5-19.5-19.5h-60.6C431,887.4,422.3,896.2,422.3,906.9z"/>
		<path class="st9" d="M462.3,935.2L462.3,935.2c0,10.8,8.7,19.5,19.5,19.5h60.6c10.8,0,19.5-8.7,19.5-19.5l0,0
			c0-10.8-8.7-19.5-19.5-19.5h-60.6C471.1,915.6,462.3,924.4,462.3,935.2z"/>
	</g>
</g>
<text transform="matrix(1 0 0 1 1130.0439 541.4458)" class="st11 st12 st13">CONTACT ME</text>
<path class="st14" d="M1505.7,963.5c-30.6,0-55.4,24.8-55.4,55.4c0,21.4,12.1,39.9,29.8,49.1l25.6,44.2l25.6-44.2h0
	c17.7-9.2,29.8-27.8,29.8-49.1C1561.1,988.3,1536.3,963.5,1505.7,963.5z M1505.7,994.4c13.5,0,24.4,10.9,24.4,24.4
	c0,13.5-10.9,24.4-24.4,24.4c-13.5,0-24.4-10.9-24.4-24.4C1481.3,1005.4,1492.2,994.4,1505.7,994.4z"/>
<line class="st15" x1="1472.4" y1="904.6" x2="1539.1" y2="904.6"/>
<line class="st15" x1="1472.4" y1="1127.9" x2="1539.1" y2="1127.9"/>
<line class="st15" x1="1472.4" y1="1339.6" x2="1539.1" y2="1339.6"/>
<line class="st15" x1="1472.4" y1="1529.5" x2="1539.1" y2="1529.5"/>
<g>
	<path class="st14" d="M1561.1,1450.1c0,6.5-1,12.5-3.1,17.9c-2.1,5.4-5,9.6-8.8,12.7c-3.8,3.1-8.2,4.6-13.2,4.6
		c-3.3,0-6.3-0.8-8.9-2.4c-2.6-1.6-4.4-3.7-5.6-6.3h-1.1c-4.9,5.8-11.1,8.8-18.7,8.8c-8,0-14.3-2.4-18.9-7.2s-6.9-11.4-6.9-19.8
		c0-9.5,3-17.2,9.1-23.1c6.1-5.8,14-8.8,23.8-8.8c3.9,0,8.2,0.4,12.9,1.1c4.7,0.7,8.5,1.6,11.6,2.7l-1.6,33.2c0,6.3,1.7,9.4,5.2,9.4
		c2.9,0,5.2-2.1,6.9-6.3c1.7-4.2,2.6-9.8,2.6-16.6c0-7.3-1.5-13.7-4.5-19.3c-3-5.6-7.3-9.9-12.8-12.8c-5.5-2.9-11.8-4.4-18.8-4.4
		c-9.1,0-17.1,1.9-23.8,5.6c-6.7,3.8-11.9,9.2-15.5,16.3c-3.6,7.1-5.4,15.3-5.4,24.5c0,12.5,3.3,22.1,10,28.7c6.7,6.7,16.3,10,29,10
		c4.8,0,10.1-0.5,15.8-1.6c5.7-1.1,11.4-2.6,17-4.6v13c-9.7,4.1-20.4,6.2-32.2,6.2c-17.2,0-30.6-4.5-40.2-13.6
		c-9.6-9-14.4-21.6-14.4-37.7c0-11.2,2.5-21.3,7.4-30.4c4.9-9.1,11.9-16.3,21-21.4c9.1-5.2,19.5-7.8,31.3-7.8c10,0,18.8,2,26.7,6.1
		c7.8,4.1,13.9,9.9,18.1,17.4C1559,1431.6,1561.1,1440.3,1561.1,1450.1z M1491.6,1458.6c0,9.5,3.9,14.3,11.7,14.3
		c4.1,0,7.2-1.4,9.3-4.3c2.1-2.9,3.4-7.5,3.9-14l0.9-15c-2.3-0.5-4.9-0.7-7.8-0.7c-5.7,0-10.1,1.8-13.2,5.3
		C1493.2,1447.7,1491.6,1452.5,1491.6,1458.6z"/>
</g>
<g>
	<path class="st14" d="M1540.5,1172.6h-69.5c-5.7,0-10.3,4.6-10.3,10.3v128c0,5.7,4.6,10.3,10.3,10.3h69.5c5.7,0,10.3-4.6,10.3-10.3
		v-128C1550.8,1177.3,1546.2,1172.6,1540.5,1172.6z M1492.1,1181.8c0.4-0.4,0.9-0.6,1.5-0.6h24.1c1.2,0,2.1,1,2.1,2.1
		c0,0.6-0.2,1.1-0.6,1.5c-0.4,0.4-0.9,0.6-1.5,0.6h-24.1c-1.2,0-2.1-0.9-2.1-2.1C1491.5,1182.7,1491.8,1182.2,1492.1,1181.8z
		 M1505.7,1317c-3.5,0-6.3-2.8-6.3-6.3s2.8-6.3,6.3-6.3c3.5,0,6.3,2.8,6.3,6.3S1509.2,1317,1505.7,1317z M1539.7,1300h-68v-106.2h68
		V1300z"/>
</g>
<text transform="matrix(1 0 0 1 1583.7275 1475.665)" class="st14 st16 st17">smohamed26208@gmail.com</text>
<text transform="matrix(1 0 0 1 1667.7119 1057.3818)" class="st14 st16 st17">3314, Somewhere</text>
<text transform="matrix(1 0 0 1 1667.7119 1266.5234)" class="st14 st16 st17">123 - 4567</text>
<g>
	<path class="st14" d="M1502.4,859.8h-22.6c3.7,13.3,9.7,23.7,16.7,28.7c2,0.3,3.9,0.5,6,0.6V859.8z"/>
	<path class="st14" d="M1502.4,797.5v-29.3c-2,0.1-4,0.3-5.9,0.6c-7,5-13,15.4-16.7,28.7H1502.4z"/>
	<path class="st14" d="M1509,859.8v29.3c2-0.1,4-0.3,6-0.6c7-5,13-15.4,16.7-28.7H1509z"/>
	<path class="st14" d="M1509,797.5h22.6c-3.7-13.3-9.7-23.7-16.7-28.7c-2-0.3-3.9-0.5-5.9-0.6V797.5z"/>
	<path class="st14" d="M1475.8,825.4h26.6v-21.2h-24.2C1476.8,810.8,1475.9,817.9,1475.8,825.4z"/>
	<path class="st14" d="M1540.1,804.2c1.3,6.6,2,13.7,2.2,21.2h23.8c-0.4-7.5-2.2-14.6-5.1-21.2H1540.1z"/>
	<path class="st14" d="M1538.6,797.5h19c-6.9-11.5-17.5-20.5-30.2-25.4C1532.2,778.7,1536,787.4,1538.6,797.5z"/>
	<path class="st14" d="M1540.1,853.2h20.9c2.9-6.5,4.7-13.7,5.1-21.2h-23.8C1542.2,839.5,1541.4,846.6,1540.1,853.2z"/>
	<path class="st14" d="M1472.8,859.8h-19c6.9,11.5,17.5,20.5,30.2,25.4C1479.3,878.6,1475.4,870,1472.8,859.8z"/>
	<path class="st14" d="M1478.2,853.2h24.2V832h-26.6C1475.9,839.4,1476.8,846.6,1478.2,853.2z"/>
	<path class="st14" d="M1538.6,859.8c-2.6,10.1-6.5,18.8-11.2,25.4c12.7-4.9,23.3-13.9,30.2-25.4H1538.6z"/>
	<path class="st14" d="M1469.1,832h-23.8c0.4,7.5,2.2,14.6,5.1,21.2h20.9C1470,846.6,1469.3,839.5,1469.1,832z"/>
	<path class="st14" d="M1450.4,804.2c-2.9,6.5-4.7,13.7-5.1,21.2h23.8c0.2-7.4,0.9-14.5,2.2-21.2H1450.4z"/>
	<path class="st14" d="M1472.8,797.5c2.6-10.1,6.5-18.8,11.2-25.4c-12.7,4.9-23.3,13.9-30.2,25.4H1472.8z"/>
	<path class="st14" d="M1535.7,832H1509v21.2h24.2C1534.6,846.6,1535.5,839.4,1535.7,832z"/>
	<path class="st14" d="M1533.3,804.2H1509v21.2h26.6C1535.5,817.9,1534.6,810.8,1533.3,804.2z"/>
</g>
<text transform="matrix(1 0 0 1 1689.7119 831.3818)" class="st14 st16 st17">www.shukri.com</text>
</svg>
